<?xml version="1.0" encoding="UTF-8"?>
<svg fill="none" viewBox="0 0 1240 339" xmlns="http://www.w3.org/2000/svg">
<path d="m607.33 270.74h-177.21v-40.246l117.57-147.52h-114.64v-40.402h173.96v38.234l-119.12 149.69h119.43v40.246z" fill="#000"/>
<path d="m704.51 226.46 34.762-124.46h46.813l-57.782 165.94c-11.124 31.991-19.93 51.805-26.419 59.441-6.489 7.74-19.467 11.61-38.933 11.61-3.914 0-7.056-0.052-9.425-0.155-2.369 0-5.922-0.155-10.66-0.464v-35.293l5.562 0.309c4.326 0.207 8.446 0.052 12.36-0.464s7.21-1.703 9.888-3.561c2.575-1.754 4.943-5.417 7.106-10.99 2.266-5.573 3.193-8.978 2.781-10.216l-61.799-176.16h48.976l36.77 124.46z" fill="#000"/>
<path d="m906.75 148.45c-3.708-8.152-10.969-12.229-21.784-12.229-12.566 0-21.011 4.077-25.337 12.229-2.369 4.644-3.554 11.558-3.554 20.743v101.54h-44.649v-168.42h42.795v24.613c5.459-8.772 10.609-15.015 15.45-18.73 8.549-6.605 19.621-9.9074 33.217-9.9074 12.875 0 23.278 2.8384 31.208 8.5134 6.386 5.263 11.227 12.023 14.523 20.279 5.768-9.907 12.926-17.183 21.475-21.827 9.064-4.643 19.158-6.9654 30.277-6.9654 7.42 0 14.73 1.4448 21.94 4.3344 7.21 2.889 13.75 7.946 19.62 15.17 4.74 5.882 7.94 13.106 9.58 21.671 1.03 5.676 1.55 13.983 1.55 24.922l-0.31 106.34h-45.11v-107.43c0-6.399-1.03-11.662-3.09-15.79-3.92-7.842-11.128-11.764-21.633-11.764-12.154 0-20.549 5.057-25.184 15.17-2.368 5.366-3.553 11.816-3.553 19.349v100.46h-44.341v-100.46c0-10.01-1.03-17.285-3.09-21.826z" fill="#000"/>
<path d="m1100 120.28c11.63-14.861 31.62-22.291 59.94-22.291 18.44 0 34.81 3.664 49.13 10.991 14.32 7.326 21.48 21.155 21.48 41.485v77.397c0 5.366 0.1 11.868 0.3 19.504 0.31 5.779 1.19 9.701 2.63 11.765s3.61 3.766 6.49 5.108v6.501h-47.89c-1.34-3.405-2.27-6.604-2.79-9.597-0.51-2.993-0.92-6.398-1.23-10.216-6.08 6.604-13.08 12.228-21.01 16.872-9.48 5.47-20.19 8.204-32.14 8.204-15.24 0-27.86-4.334-37.85-13.002-9.89-8.772-14.83-21.156-14.83-37.151 0-20.743 7.98-35.758 23.95-45.046 8.75-5.056 21.62-8.668 38.62-10.835l14.99-1.858c8.13-1.032 13.95-2.322 17.45-3.87 6.29-2.683 9.43-6.862 9.43-12.538 0-6.914-2.42-11.661-7.26-14.241-4.74-2.683-11.74-4.025-21.01-4.025-10.41 0-17.77 2.58-22.1 7.74-3.09 3.818-5.15 8.978-6.18 15.479h-42.48c0.92-14.757 5.04-26.882 12.36-36.376zm32.75 118.57c4.12 3.405 9.17 5.108 15.14 5.108 9.48 0 18.18-2.787 26.11-8.359 8.03-5.573 12.2-15.738 12.51-30.495v-16.408c-2.78 1.754-5.61 3.199-8.49 4.334-2.78 1.032-6.65 2.013-11.59 2.941l-9.89 1.858c-9.27 1.651-15.91 3.663-19.93 6.037-6.8 4.025-10.2 10.268-10.2 18.73 0 7.533 2.12 12.951 6.34 16.254z" fill="#000"/>
<path d="m92.332 317.02h-92.332l180.53-292.54c9.329-15.118 25.805-24.319 43.545-24.319h92.331l-180.53 292.54c-9.329 15.118-25.804 24.319-43.544 24.319z" fill="url(#c)"/>
<path d="m316.41 256.31c0 33.529-27.128 60.709-60.592 60.709-33.465 0-60.593-27.18-60.593-60.709s27.128-60.709 60.593-60.709c33.464 0 60.592 27.18 60.592 60.709z" fill="url(#b)"/>
<path d="m119.92 60.075c0 33.179-26.845 60.076-59.96 60.076-33.115 0-59.96-26.897-59.96-60.076s26.845-60.075 59.96-60.075c33.115 0 59.96 26.897 59.96 60.075z" fill="url(#a)"/>
<defs>
<linearGradient id="c" x1="620" x2="667.46" y1="-35.952" y2="365.26" gradientUnits="userSpaceOnUse">
<stop stop-color="#3B93DD" offset="0"/>
<stop stop-color="#9F71C3" offset=".31771"/>
<stop stop-color="#EF8357" offset=".64583"/>
<stop stop-color="#D96572" offset="1"/>
</linearGradient>
<linearGradient id="b" x1="181.3" x2="273.31" y1="34.962" y2="467.35" gradientUnits="userSpaceOnUse">
<stop stop-color="#F28652" offset="0"/>
<stop stop-color="#D1657F" offset="1"/>
</linearGradient>
<linearGradient id="a" x1="30.375" x2="98.888" y1="11.888" y2="102.59" gradientUnits="userSpaceOnUse">
<stop stop-color="#3395DE" offset="0"/>
<stop stop-color="#9673CE" offset="1"/>
</linearGradient>
</defs>
</svg>
